<?xml version="1.0" encoding="UTF-8"?>
<svg version="1.1" xmlns="http://www.w3.org/2000/svg" width="37" height="41">
<path d="M0 0 C3.18407594 1.79104272 4.52721167 3.20485599 6.375 6.3125 C8.2418827 14.34009563 3.9448751 21.21887981 0 28 C-1.2990084 29.69355624 -2.6230586 31.36917569 -4 33 C-8.16823279 31.61058907 -9.14175823 28.72750174 -11.125 25.0625 C-11.66447266 24.09280273 -11.66447266 24.09280273 -12.21484375 23.10351562 C-15.45815799 17.25461747 -16.65988441 13.69145942 -16 7 C-12.68178532 -0.42648048 -7.43470901 -0.96199909 0 0 Z M-8.6875 7.5 C-9.450625 8.325 -10.21375 9.15 -11 10 C-9.92598892 12.91517292 -9.22189824 14.77810176 -7 17 C-3.96655046 16.91115 -3.96655046 16.91115 -1 16 C1.32038095 13.17431454 1.32038095 13.17431454 0.8125 9.9375 C0.26245502 6.70259047 0.26245502 6.70259047 -3 5 C-6.24565858 4.65944803 -6.24565858 4.65944803 -8.6875 7.5 Z " fill="#FF3710" transform="translate(23,0)"/>
<path d="M0 0 C2.05219747 1.83308264 3.39206263 3.72997078 5 6 C5.639375 4.989375 6.27875 3.97875 6.9375 2.9375 C8.6817318 0.81950424 9.43257027 0.06360867 12.1953125 -0.24609375 C16.1859761 0.16877722 19.52241565 0.93327772 23 3 C23.9375 4.9375 23.9375 4.9375 24 7 C21.94504072 9.96827451 19.3792824 10.95921586 16 12 C12.53903604 12.31836982 9.09864499 12.32456127 5.625 12.3125 C4.70460938 12.32861328 3.78421875 12.34472656 2.8359375 12.36132812 C-2.85712105 12.3653946 -7.01535546 11.83875843 -12 9 C-12.9375 6.3125 -12.9375 6.3125 -13 4 C-8.79991487 0.668898 -5.4271114 -0.7597956 0 0 Z " fill="#FFFFFF" transform="translate(13,29)"/>
<path d="M0 0 C2.5 0.125 2.5 0.125 3.5 1.125 C3.625 4.125 3.625 4.125 3.5 7.125 C2.5 8.125 2.5 8.125 0.0625 8.3125 C-2.5 8.125 -2.5 8.125 -4.5 6.125 C-3.77607362 0.18880368 -3.77607362 0.18880368 0 0 Z " fill="#FFFFFF" transform="translate(18.5,6.875)"/>
</svg>
